<svg xmlns="http://www.w3.org/2000/svg" viewBox="0 0 16 16" width="512" height="512" shape-rendering="crispEdges">
  <rect width="16" height="16" rx="3.000" fill="#17161a"></rect>
  <g>
    <rect x="4" y="4" width="11" height="1" fill="#f4f1e8"></rect>
    <rect x="3" y="5" width="2" height="1" fill="#f4f1e8"></rect>
    <rect x="5" y="5" width="8" height="1" fill="#2b2a2e"></rect>
    <rect x="13" y="5" width="1" height="1" fill="#f4f1e8"></rect>
    <rect x="14" y="5" width="1" height="1" fill="#a9a394"></rect>
    <rect x="2" y="6" width="11" height="1" fill="#f4f1e8"></rect>
    <rect x="13" y="6" width="2" height="1" fill="#a9a394"></rect>
    <rect x="1" y="7" width="11" height="1" fill="#dad5c6"></rect>
    <rect x="12" y="7" width="3" height="1" fill="#a9a394"></rect>
    <rect x="1" y="8" width="11" height="1" fill="#dad5c6"></rect>
    <rect x="12" y="8" width="3" height="1" fill="#a9a394"></rect>
    <rect x="1" y="9" width="11" height="1" fill="#dad5c6"></rect>
    <rect x="12" y="9" width="2" height="1" fill="#a9a394"></rect>
    <rect x="14" y="9" width="1" height="1" fill="#2b2a2e"></rect>
    <rect x="1" y="10" width="1" height="1" fill="#dad5c6"></rect>
    <rect x="2" y="10" width="6" height="1" fill="#2b2a2e"></rect>
    <rect x="8" y="10" width="1" height="1" fill="#dad5c6"></rect>
    <rect x="9" y="10" width="2" height="1" fill="#e04a2f"></rect>
    <rect x="11" y="10" width="1" height="1" fill="#dad5c6"></rect>
    <rect x="12" y="10" width="1" height="1" fill="#a9a394"></rect>
    <rect x="13" y="10" width="1" height="1" fill="#2b2a2e"></rect>
    <rect x="1" y="11" width="1" height="1" fill="#dad5c6"></rect>
    <rect x="2" y="11" width="6" height="1" fill="#2b2a2e"></rect>
    <rect x="8" y="11" width="4" height="1" fill="#dad5c6"></rect>
    <rect x="12" y="11" width="1" height="1" fill="#2b2a2e"></rect>
    <rect x="1" y="12" width="11" height="1" fill="#a9a394"></rect>
    <rect x="2" y="13" width="12" height="1" fill="#000000" opacity="0.35"></rect>
  </g>
</svg>